<?xml version="1.0" standalone="no"?>
<!DOCTYPE svg PUBLIC "-//W3C//DTD SVG 20010904//EN"
 "http://www.w3.org/TR/2001/REC-SVG-20010904/DTD/svg10.dtd">
<svg version="1.0" xmlns="http://www.w3.org/2000/svg"
 width="1920.000000pt" height="1080.000000pt" viewBox="0 0 1920.000000 1080.000000"
 preserveAspectRatio="xMidYMid meet">

<g transform="translate(0.000000,1080.000000) scale(0.100000,-0.100000)"
fill="#000000" stroke="none">
<path d="M7320 5400 l0 -740 2280 0 2280 0 0 740 0 740 -2280 0 -2280 0 0
-740z m750 650 c130 -47 217 -135 273 -277 19 -49 22 -77 22 -183 0 -106 -3
-134 -23 -184 -52 -135 -144 -228 -273 -276 -61 -23 -75 -24 -314 -25 l-250 0
-3 479 c-2 377 1 482 10 488 7 5 121 7 253 5 219 -4 246 -6 305 -27z m618 22
c10 -7 12 -111 10 -488 l-3 -479 -152 -3 -153 -3 0 484 c0 266 3 487 7 490 9
10 275 8 291 -1z m1046 2 c14 -5 16 -47 16 -370 l0 -364 188 2 187 3 5 365 5
365 508 2 c385 2 510 -1 518 -10 15 -17 167 -253 236 -367 31 -52 59 -98 62
-102 3 -4 5 101 3 232 l-4 239 24 6 c13 3 68 5 123 3 l100 -3 0 -485 0 -485
-122 -3 -122 -3 -34 53 c-72 112 -246 396 -276 452 -17 32 -31 55 -32 50 0 -5
-1 -130 -2 -279 l-2 -270 -119 -3 c-89 -2 -121 1 -128 10 -6 10 -8 10 -8 1 0
-10 -148 -13 -704 -13 -633 0 -704 2 -710 16 -3 9 -6 175 -6 370 l0 354 -195
0 -195 0 0 -75 0 -74 158 -3 157 -3 3 -107 3 -108 -160 0 -161 0 -2 -182 -3
-183 -145 0 -145 0 -3 475 c-1 261 0 481 3 488 3 9 109 12 484 12 264 0 486
-3 495 -6z m1696 -1146 c0 -4 -7 -11 -16 -16 -14 -8 -13 -13 4 -48 57 -113 64
-147 24 -111 -24 22 -90 23 -98 2 -8 -19 -24 -20 -24 -1 0 10 26 72 68 158 2
3 -6 4 -18 1 -15 -4 -19 -2 -14 10 4 10 17 15 40 14 19 -1 34 -5 34 -9z
m-3894 -73 c14 -25 29 -45 33 -45 4 0 17 21 29 46 13 25 28 44 35 41 17 -5 17
-149 0 -154 -9 -3 -13 10 -13 44 l-1 48 -26 -44 c-24 -39 -28 -42 -37 -26 -6
9 -19 27 -28 39 -17 21 -17 20 -18 -22 0 -30 -4 -42 -12 -40 -8 3 -14 28 -16
68 -5 103 11 117 54 45z m286 23 c22 -40 58 -132 53 -137 -3 -2 -13 3 -23 12
-24 22 -90 23 -98 2 -8 -19 -24 -20 -24 -1 0 22 59 146 70 146 5 0 15 -10 22
-22z m204 -28 c20 -27 40 -50 45 -50 5 0 9 23 9 51 0 36 4 49 13 47 8 -3 12
-28 12 -79 0 -94 -15 -99 -72 -22 l-43 57 0 -58 c0 -42 -3 -57 -12 -54 -8 3
-14 28 -16 68 -5 106 10 116 64 40z m194 -4 c0 -70 28 -103 67 -78 6 4 13 34
15 66 2 36 8 61 16 64 21 7 16 -121 -5 -140 -47 -40 -97 -26 -113 31 -11 41
-13 95 -3 104 16 17 23 3 23 -47z m315 -3 c14 -31 28 -67 31 -80 7 -25 -10
-32 -20 -8 -4 10 -20 15 -50 15 -30 0 -46 -5 -50 -15 -9 -25 -28 -18 -20 7 18
57 59 138 70 138 7 0 24 -26 39 -57z m147 -10 l3 -68 38 -3 c55 -5 45 -22 -13
-22 l-50 0 0 80 c0 97 18 107 22 13z m351 36 c25 -31 22 -75 -8 -104 -18 -19
-35 -25 -70 -25 l-45 0 0 81 0 82 53 -6 c36 -5 57 -13 70 -28z m222 21 c4 -6
-13 -10 -44 -10 -44 0 -51 -3 -51 -19 0 -16 8 -20 37 -23 53 -4 56 -28 3 -28
-37 0 -41 -2 -38 -22 2 -19 10 -24 46 -26 61 -5 52 -22 -13 -22 l-55 0 0 80 0
80 54 0 c30 0 58 -4 61 -10z m256 -1 c30 -15 13 -29 -21 -16 -24 9 -32 8 -49
-8 -25 -22 -27 -67 -5 -90 13 -12 27 -15 58 -10 39 7 40 6 24 -11 -26 -27 -77
-22 -105 10 -59 69 18 169 98 125z m216 -4 c50 -35 35 -123 -23 -146 -36 -13
-90 14 -103 52 -26 75 61 139 126 94z m171 -33 c13 -23 27 -42 31 -42 4 0 18
20 30 46 13 25 28 43 34 41 17 -5 16 -149 0 -154 -9 -3 -13 10 -14 44 l0 48
-22 -42 c-11 -24 -25 -43 -29 -43 -5 0 -16 16 -25 35 -22 46 -33 44 -33 -5 0
-22 -4 -40 -10 -40 -6 0 -10 34 -10 81 0 92 10 99 48 31z m232 -6 c0 -36 5
-60 16 -70 38 -39 74 -5 74 70 0 30 5 54 10 54 6 0 10 -28 10 -63 0 -48 -4
-68 -17 -79 -32 -28 -58 -30 -86 -7 -24 18 -27 27 -27 85 0 36 4 64 10 64 6 0
10 -24 10 -54z m257 5 c21 -28 41 -50 45 -50 4 -1 8 20 10 47 5 74 23 50 23
-30 0 -46 -4 -73 -12 -75 -6 -2 -29 19 -49 46 -21 28 -42 51 -46 51 -4 0 -8
-23 -8 -51 0 -36 -4 -49 -12 -47 -8 3 -14 28 -16 68 -5 106 9 115 65 41z m193
-31 c0 -47 -4 -80 -10 -80 -6 0 -10 33 -10 80 0 47 4 80 10 80 6 0 10 -33 10
-80z m205 67 c13 -11 15 -16 6 -22 -7 -4 -18 -2 -24 4 -27 27 -77 -4 -77 -50
0 -43 25 -62 74 -54 39 7 40 6 24 -11 -26 -27 -77 -22 -105 10 -30 35 -29 76
2 110 27 29 70 34 100 13z m195 -12 c5 -14 19 -45 30 -69 11 -25 20 -50 20
-55 0 -16 -20 -13 -26 4 -9 22 -83 20 -100 -2 -28 -39 -25 1 6 72 34 78 54 92
70 50z m251 14 c30 -15 13 -29 -21 -16 -24 9 -32 8 -49 -8 -25 -22 -27 -67 -5
-90 13 -12 27 -15 58 -10 l41 6 -22 -20 c-13 -10 -23 -26 -23 -35 0 -9 -8 -16
-20 -16 -12 0 -20 6 -18 13 1 6 -12 26 -30 44 -40 39 -42 79 -7 117 25 28 62
34 96 15z m454 -14 c32 -31 32 -75 2 -111 -49 -56 -137 -20 -137 57 0 71 85
105 135 54z"/>
<path d="M7810 5590 l0 -263 60 6 c67 6 108 29 138 80 51 85 55 247 7 340 -35
70 -63 88 -141 95 l-64 5 0 -263z"/>
<path d="M10858 5854 c-4 -3 -98 -5 -211 -4 -144 0 -207 -3 -212 -11 -4 -6 -8
-37 -8 -68 l0 -56 177 -3 176 -2 0 -105 0 -105 -173 0 c-96 0 -176 -2 -178 -4
-2 -2 -3 -38 -1 -80 l4 -75 219 -3 219 -3 0 263 c0 144 -1 262 -3 262 -2 0 -6
-3 -9 -6z"/>
<path d="M11376 4825 c-16 -25 -16 -25 14 -25 29 0 30 2 19 23 -6 12 -13 23
-14 25 -1 1 -10 -9 -19 -23z"/>
<path d="M7787 4829 c-17 -23 -17 -24 4 -27 28 -5 34 3 22 30 l-9 22 -17 -25z"/>
<path d="M8481 4828 c-7 -19 -5 -24 11 -26 25 -5 28 -1 21 26 -7 28 -21 28
-32 0z"/>
<path d="M8932 4823 c3 -58 3 -58 33 -56 36 3 65 35 58 63 -7 26 -41 50 -71
50 -22 0 -23 -3 -20 -57z"/>
<path d="M9640 4860 c-27 -27 -25 -56 6 -85 22 -20 30 -23 48 -13 28 15 36 28
36 59 0 29 -27 59 -53 59 -9 0 -26 -9 -37 -20z"/>
<path d="M10941 4832 c-16 -29 -14 -32 14 -32 28 0 31 8 11 35 -13 18 -14 18
-25 -3z"/>
<path d="M11597 4868 c-28 -21 -26 -76 4 -98 20 -16 26 -17 50 -5 35 19 44 53
20 85 -21 29 -49 36 -74 18z"/>
</g>
</svg>
